<?xml version="1.0" standalone="no"?><!DOCTYPE svg PUBLIC "-//W3C//DTD SVG 1.1//EN" "http://www.w3.org/Graphics/SVG/1.1/DTD/svg11.dtd"><svg t="1632991139487" class="icon" viewBox="0 0 1024 1024" version="1.1" xmlns="http://www.w3.org/2000/svg" p-id="4315" xmlns:xlink="http://www.w3.org/1999/xlink" width="200" height="200"><defs><style type="text/css"></style></defs><path d="M510.961 960.855c-36.74 0-71.261-14.287-97.206-40.232-0.039-0.041-0.079-0.227-0.118-0.266L363.001 869H291.46c-36.834 0-71.262-13.91-97.149-39.435C168.243 803.863 154 769.557 154 732.701V661.07l-50.821-50.654c-53.81-53.81-53.782-141.32-0.017-195.084L154 364.657v-71.62C154 216.767 215.539 155 291.46 155h71.653l50.659-50.719c26.005-26.006 60.611-40.408 97.426-40.408 36.874 0 71.546 14.471 97.63 40.555L659.457 155h71.667C806.791 155 868 216.767 868 293.036v71.587l51.124 50.646c53.796 53.795 53.629 141.305-0.202 195.136L868 661.087v71.614c0 36.851-14.077 71.134-39.957 96.803C802.269 855.069 767.962 869 731.124 869h-71.59l-50.646 51.08c-26.221 26.22-60.978 40.775-97.927 40.775z m-55.126-82.192c14.715 14.683 34.287 22.767 55.126 22.767 21.076 0 40.91-8.226 55.848-23.163l59.299-59.571c5.577-5.607 13.16-8.696 21.069-8.696h83.946C774.751 810 809 775.974 809 732.701v-83.947c0-7.895 3.105-15.467 8.697-21.041l59.518-59.359c30.63-30.63 30.7-80.44 0.137-111.003l-59.619-59.297c-5.611-5.577-8.733-13.161-8.733-21.072v-83.946C809 249.534 774.024 214 731.124 214h-83.946c-7.864 0-15.407-3.046-20.976-8.598l-59.358-59.133c-14.894-14.894-34.643-23.06-55.645-23.06-20.942 0-40.625 8.159-55.424 22.957l-59.376 59.213c-5.571 5.562-13.121 8.619-20.993 8.619H291.46c-43.154 0-78.46 35.534-78.46 79.036v83.946c0 7.891-3.04 15.458-8.625 21.032l-59.435 59.359c-30.573 30.572-30.52 80.382 0.11 111.013l59.324 59.347c5.579 5.573 8.627 13.135 8.627 21.021v83.947C213 775.974 247.575 810 291.46 810h83.946c7.938 0 15.546 3.112 21.128 8.756l59.301 59.907z" fill="#097ae9" p-id="4316"></path><path d="M550.782 587.947c16.519 24.678 9.905 58.075-14.772 74.594-24.678 16.519-58.075 9.905-74.594-14.772l-140.83-210.383c-16.519-24.678-9.905-58.075 14.772-74.594 24.678-16.519 58.075-9.905 74.594 14.772l140.83 210.383z" fill="#097ae9" p-id="4317"></path><path d="M702.103 435.765c16.489-24.698 9.835-58.086-14.862-74.576-24.698-16.489-58.086-9.835-74.576 14.862L472.09 586.604c-16.489 24.698-9.835 58.086 14.862 74.576 24.698 16.489 58.086 9.835 74.576-14.862l140.575-210.553z" fill="#097ae9" p-id="4318"></path></svg>